<?xml version="1.0" encoding="utf-8"?>
<!-- Generator: Adobe Illustrator 24.2.1, SVG Export Plug-In . SVG Version: 6.00 Build 0)  -->
<svg version="1.1" id="Layer_1" xmlns="http://www.w3.org/2000/svg" xmlns:xlink="http://www.w3.org/1999/xlink" x="0px" y="0px"
	 viewBox="0 0 415.6 247.5" style="enable-background:new 0 0 415.6 247.5;" xml:space="preserve">
<style type="text/css">
	.st0{fill:#FFFFFF;}
</style>
<circle cx="200.2" cy="123.8" r="71.3"/>
<g>
	<path class="st0" d="M146,106c0-4.6,1.6-8.1,4.7-10.7s7.8-3.9,14.1-3.9c4,0,8,0.5,11.9,1.6v8.5c-3.8-1.3-7.8-1.9-11.8-1.9
		c-6.6,0-10,2.4-10,7.1v34.6c0,4.5,2.8,6.8,8.3,6.8c3.1,0,5.4-0.5,7-1.6v-15.7c0,0-5.7,0-5.7,0c0,0,0-7.3,0-7.3h14.4v28.8
		c-4.6,2.5-9.7,3.8-15.4,3.8s-10-1.2-13-3.5c-3-2.4-4.5-5.9-4.5-10.6L146,106z"/>
	<path class="st0" d="M194.8,133.8v21.8H187V99.6h15.1c4.4,0,7.8,1.1,10.1,3.3c2.3,2.2,3.5,5.3,3.5,9.2v8.9c0,6.1-2.3,10.1-7,11.8
		l8.9,22.8H209l-8-21.8H194.8z M194.8,106.4v20.9h6.6c2.3,0,4-0.5,5-1.6s1.5-2.6,1.5-4.8v-8.4c0-4.1-2.2-6.2-6.5-6.2L194.8,106.4z"
		/>
	<path class="st0" d="M246.4,99.6h8.1l-11.8,56.1h-10.9L220,99.6h7.9c4.1,20.4,6.6,33.3,7.6,38.8s1.6,8.9,1.8,10.1
		c0.5-2.3,1.2-6.1,2.1-11.5c0.9-5.4,1.5-9,1.8-10.8L246.4,99.6z"/>
</g>
</svg>
