<svg id="Layer_1" data-name="Layer 1" xmlns="http://www.w3.org/2000/svg" viewBox="0 0 415.56 247.54"><path d="M201.78,210.65q0-26.25,17.81-41t54.15-14.75A164.27,164.27,0,0,1,319.43,161v32.38a142.59,142.59,0,0,0-45.33-7.2q-38.15,0-38.14,27.35v132.4q0,25.92,31.66,25.91,17.63,0,26.63-6.12v-60s-21.73,0-21.75,0,0-28-.06-28.11h55.27V388q-26.26,14.4-58.83,14.39t-49.83-13.49q-17.27-13.5-17.27-40.48Z" transform="translate(-201.78 -154.88)"/><path d="M388.87,317.18v83.66H359.08V186h57.67q25.35,0,38.82,12.67T469,233.84v34.22q0,35.18-26.94,45.32l34.23,87.46h-33l-30.74-83.66Zm0-105.21v80.17h25.35q13.3,0,19.17-6t5.86-18.38v-32q0-23.78-25-23.77Z" transform="translate(-201.78 -154.88)"/><path d="M586.29,186h31.05l-45,214.85H530.51L485.2,186h30.42q23.45,116.92,29,148.77t6.81,38.51q2.85-13,7.92-43.89t7-41.35Z" transform="translate(-201.78 -154.88)"/></svg>