<?xml version="1.0" encoding="utf-8"?>
<!-- Generator: Adobe Illustrator 24.2.1, SVG Export Plug-In . SVG Version: 6.00 Build 0)  -->
<svg version="1.1" id="Layer_1" xmlns="http://www.w3.org/2000/svg" xmlns:xlink="http://www.w3.org/1999/xlink" x="0px" y="0px"
	 viewBox="0 0 512 512" style="enable-background:new 0 0 512 512;" xml:space="preserve">
<style type="text/css">
	.st0{fill:#FFFFFF;}
</style>
<path class="st0" d="M300.2,256c0,24.4-19.8,44.2-44.2,44.2c0,0,0,0,0,0c-24.4,0-44.2-19.8-44.2-44.2l0,0
	c0-24.4,19.8-44.2,44.2-44.2l0,0C280.4,211.8,300.2,231.6,300.2,256C300.2,256,300.2,256,300.2,256z M280.5,249.5
	c1-7.6-3.6-14.8-10.8-17.2c-5.1-1.7-10.6-0.8-14.9,2.4c-1.2,0.9-2.4,2.2-3.5,3.3c-1.3,1.3-2.3,2.2-2.2,3.9c0.2,2.9,3.1,4.8,5.7,3.6
	c0.4-0.2,0.9-0.6,1.5-1.2c1.3-1.3,2.7-2.9,4.2-3.8c3.2-1.9,7.5-1.3,10,1.6c2.3,2.6,2.7,6.4,0.9,9.4c-0.8,1.4-2.3,2.7-3.6,4
	c-0.7,0.7-1.2,1.3-1.4,1.7c-1.6,3.3,2,7,5.3,5.3c0.5-0.2,1.1-0.8,2-1.6c1.3-1.3,2.2-2.2,2.6-2.6C278.7,255.8,280,252.9,280.5,249.5z
	 M263.2,254.5c1.5-1.5,1.5-4,0-5.5c0,0,0,0,0,0l-0.2-0.2c-1.5-1.5-4-1.5-5.5,0c0,0,0,0,0,0l-8.6,8.6c-1.5,1.5-1.5,4,0,5.5
	c0,0,0,0,0,0l0.2,0.2c1.5,1.5,4,1.5,5.5,0c0,0,0,0,0,0L263.2,254.5z M248.3,272.5c-6.6,0.7-11.2-6.4-7.8-12.1c0.8-1.4,2.4-2.7,3.6-4
	c0.7-0.7,1.1-1.2,1.3-1.6c1.6-3.4-2.2-7.1-5.5-5.2c-0.4,0.2-1,0.7-1.7,1.4c-1.3,1.3-2.8,2.7-3.8,4c-5.1,7-3.7,16.7,3,22.1
	c5.9,4.7,14.4,4.5,20.2-0.2c1.1-0.9,2.2-2.1,3.3-3.2c1.2-1.2,2-2.3,1.8-3.9c-0.4-2.7-3.2-4.4-5.7-3.2c-0.5,0.2-1,0.7-1.7,1.3
	C253.2,270.2,251.5,272.2,248.3,272.5z"/>
</svg>
